<?xml version="1.0" standalone="no"?>
<!DOCTYPE svg PUBLIC "-//W3C//DTD SVG 20010904//EN"
 "http://www.w3.org/TR/2001/REC-SVG-20010904/DTD/svg10.dtd">
<svg version="1.0" xmlns="http://www.w3.org/2000/svg"
 width="980.000000pt" height="980.000000pt" viewBox="0 0 980.000000 980.000000"
 preserveAspectRatio="xMidYMid meet">
<metadata>
Created by potrace 1.16, written by Peter Selinger 2001-2019
</metadata>
<g transform="translate(0.000000,980.000000) scale(0.100000,-0.100000)"
fill="#000000" stroke="none">
<path d="M4640 9793 c-381 -26 -614 -62 -940 -143 -591 -147 -1173 -420 -1675
-785 -406 -296 -815 -706 -1103 -1108 -728 -1016 -1039 -2244 -881 -3482 118
-922 488 -1770 1094 -2507 140 -170 461 -491 633 -633 1073 -885 2424 -1273
3787 -1090 1037 140 1999 607 2750 1337 299 290 537 585 767 951 101 161 313
582 384 762 615 1567 393 3326 -591 4680 -150 206 -300 380 -500 581 -392 393
-792 684 -1275 925 -601 300 -1200 462 -1880 509 -133 9 -461 11 -570 3z m780
-487 c987 -124 1871 -548 2574 -1236 250 -244 411 -440 600 -725 130 -196 176
-275 274 -471 226 -452 366 -911 434 -1429 20 -150 22 -214 22 -545 0 -331 -2
-395 -22 -545 -129 -977 -545 -1842 -1222 -2539 -730 -752 -1674 -1212 -2725
-1328 -185 -20 -772 -17 -950 5 -929 116 -1745 477 -2427 1076 -829 727 -1347
1712 -1485 2821 -26 210 -26 812 0 1020 110 883 453 1673 1016 2345 106 127
356 380 486 492 560 485 1232 824 1945 982 165 36 348 66 495 80 61 6 124 13
140 15 17 2 183 3 370 1 243 -2 378 -7 475 -19z"/>
<path d="M4655 7659 c-319 -40 -579 -136 -713 -263 -198 -187 -284 -439 -313
-923 -24 -399 -3 -501 126 -598 24 -18 30 -36 51 -145 29 -150 53 -225 110
-345 78 -166 215 -350 347 -465 l47 -42 0 -202 c0 -232 -1 -234 -84 -271 -28
-12 -123 -39 -211 -60 -569 -132 -902 -230 -1022 -301 -60 -35 -173 -150 -207
-209 -15 -27 -39 -77 -53 -110 -26 -61 -160 -681 -224 -1031 -32 -179 -33
-182 -15 -227 21 -57 75 -110 142 -142 215 -102 1302 -195 2284 -195 651 0
1392 48 1932 124 308 44 433 81 472 140 38 59 40 108 12 336 -38 310 -123 866
-142 930 -20 69 -68 167 -97 199 -43 47 -142 102 -291 160 -182 71 -764 280
-966 346 -179 59 -215 77 -235 116 -25 48 -38 199 -30 364 l6 150 63 65 c95
99 184 240 225 355 30 85 69 288 82 424 16 178 17 181 40 181 30 0 74 28 92
60 28 46 37 148 37 410 0 297 -13 515 -34 583 -40 128 -136 251 -234 301 -71
36 -166 56 -278 60 l-93 3 -72 68 c-82 77 -194 136 -293 154 -69 13 -359 12
-461 0z m41 -3716 c31 -49 75 -116 96 -150 l40 -63 -77 -337 c-43 -186 -80
-341 -84 -345 -4 -5 -74 168 -155 382 l-149 390 24 19 c13 10 71 57 129 104
58 47 108 86 112 86 4 1 32 -38 64 -86z m764 -23 l139 -101 -18 -47 c-10 -26
-76 -203 -147 -394 -71 -191 -130 -346 -131 -344 -2 1 -43 157 -92 347 l-90
344 97 147 c53 82 98 148 99 148 2 0 66 -45 143 -100z"/>
<path d="M2995 6803 c-215 -46 -354 -141 -428 -293 -49 -101 -65 -169 -78
-335 -16 -200 -15 -272 4 -337 14 -45 24 -60 52 -77 19 -11 35 -24 35 -29 0
-50 37 -199 64 -257 44 -95 77 -142 170 -242 l76 -81 0 -91 c0 -96 -13 -143
-46 -173 -11 -9 -75 -31 -144 -48 -486 -121 -601 -164 -673 -249 -72 -86 -93
-151 -177 -556 -44 -210 -49 -295 -19 -343 20 -33 83 -60 169 -72 41 -6 120
-18 175 -26 55 -8 114 -17 131 -20 l31 -4 18 72 c46 193 123 339 227 434 57
52 292 224 361 264 20 12 37 26 37 31 0 5 -14 43 -30 85 -17 42 -27 80 -23 84
4 3 38 30 74 58 l67 52 76 -89 77 -89 72 19 c74 20 75 21 164 123 l42 48 56
-47 55 -48 158 32 c91 19 167 39 182 50 19 14 27 31 33 72 4 29 5 59 3 66 -3
6 -70 33 -150 58 -79 25 -155 54 -168 64 -22 19 -23 23 -23 193 l0 173 -54 85
c-204 320 -271 620 -257 1149 3 135 9 261 12 279 l6 32 -143 -1 c-87 0 -172
-7 -214 -16z"/>
<path d="M6378 6814 c-16 -5 -18 -23 -18 -187 0 -491 -82 -994 -216 -1326 -31
-79 -33 -86 -18 -103 9 -9 25 -20 35 -23 17 -6 19 -18 19 -126 0 -66 -5 -129
-10 -139 -11 -21 -103 -53 -205 -71 -35 -6 -84 -17 -107 -24 l-43 -12 -3 -73
c-3 -77 9 -109 48 -130 16 -8 351 -100 367 -100 1 0 3 6 3 13 0 7 25 37 55 67
l55 54 64 -63 64 -64 -13 -38 -14 -38 141 -46 c77 -25 143 -44 146 -41 3 3 -5
42 -17 87 l-22 81 52 62 c29 33 56 65 60 70 5 5 29 -8 55 -30 26 -21 58 -48
71 -59 l25 -21 -46 -119 c-25 -65 -45 -119 -43 -120 1 -1 36 -18 77 -39 168
-84 295 -204 360 -341 35 -73 89 -233 105 -313 l7 -32 66 6 c72 7 314 46 400
64 75 17 103 44 109 106 3 27 -11 163 -32 309 -46 339 -54 383 -67 424 -17 55
-76 111 -153 147 -87 40 -468 180 -629 230 -66 21 -131 48 -145 60 -26 22 -26
24 -26 166 l0 144 58 65 c32 35 71 91 87 124 36 77 70 225 79 339 l6 90 32 8
c18 5 38 18 45 31 17 30 23 300 9 455 -12 145 -41 223 -103 276 -46 40 -91 54
-194 62 -75 7 -81 9 -117 46 -20 22 -63 51 -95 66 -53 25 -68 27 -202 29 -80
1 -153 -1 -162 -3z"/>
</g>
</svg>
