<?xml version="1.0" standalone="no"?>
<!DOCTYPE svg PUBLIC "-//W3C//DTD SVG 20010904//EN"
 "http://www.w3.org/TR/2001/REC-SVG-20010904/DTD/svg10.dtd">
<svg version="1.0" xmlns="http://www.w3.org/2000/svg"
 width="670.000000pt" height="867.000000pt" viewBox="0 0 670.000000 867.000000"
 preserveAspectRatio="xMidYMid meet">
<metadata>
Created by potrace 1.16, written by Peter Selinger 2001-2019
</metadata>
<g transform="translate(0.000000,867.000000) scale(0.100000,-0.100000)"
fill="#000000" stroke="none">
<path d="M998 8049 c-189 -13 -274 -35 -318 -85 -24 -27 -30 -44 -30 -79 0
-24 3 -51 6 -60 13 -32 65 -47 188 -55 100 -6 133 -13 193 -37 144 -60 218
-117 288 -224 100 -150 148 -351 148 -624 -1 -223 -16 -381 -109 -1100 -21
-156 -14 -404 15 -567 l21 -117 -34 -49 c-48 -66 -112 -204 -132 -282 -23 -91
-21 -225 4 -327 27 -106 71 -200 171 -366 89 -147 122 -221 141 -312 32 -157
-33 -352 -191 -570 l-67 -93 4 -63 c32 -526 71 -825 139 -1072 55 -203 119
-318 197 -356 58 -28 103 -27 166 5 62 31 93 71 99 129 7 55 -9 102 -54 161
-29 37 -39 63 -50 123 -34 199 -62 491 -47 491 5 0 31 -40 58 -88 82 -146 243
-399 352 -552 276 -388 522 -605 683 -604 94 0 173 55 187 128 16 89 -50 192
-291 451 -272 292 -349 398 -376 519 -11 49 -10 61 8 108 29 80 112 208 365
561 277 388 331 473 352 557 45 177 134 176 364 -2 273 -212 528 -451 587
-552 25 -43 30 -64 42 -205 36 -428 149 -1175 223 -1476 67 -276 122 -408 230
-555 141 -189 185 -220 313 -220 107 0 173 20 228 68 41 37 43 42 47 104 4 63
3 67 -31 104 -19 22 -72 60 -118 86 -46 25 -103 63 -126 82 -54 47 -94 131
-101 214 -5 60 12 412 24 516 l6 48 54 -100 c127 -240 272 -440 423 -584 155
-148 279 -211 417 -212 71 -1 85 2 121 26 78 52 109 175 59 235 -31 37 -107
78 -171 94 -166 40 -390 451 -651 1195 l-53 152 112 93 c139 117 317 293 381
379 53 72 106 170 106 197 0 10 37 70 83 133 270 372 387 672 418 1075 11 127
10 185 -5 381 -19 258 -41 385 -79 461 -24 46 -77 103 -96 103 -15 0 -87 -58
-132 -107 -51 -55 -73 -91 -99 -167 -19 -58 -25 -60 -166 -76 -107 -13 -226
-1 -331 31 -46 14 -139 64 -282 151 -133 81 -211 123 -207 111 50 -128 146
-438 146 -471 0 -8 -23 18 -51 59 -81 116 -265 292 -399 381 -336 223 -675
329 -1149 359 -344 22 -795 -28 -1213 -134 l-97 -25 -19 22 c-56 60 -73 155
-52 283 6 43 39 168 72 277 88 295 88 294 95 616 6 314 -4 438 -51 624 -51
197 -124 333 -246 456 -129 130 -288 203 -470 216 -41 2 -88 6 -105 7 -16 2
-78 0 -137 -4z"/>
</g>
</svg>
