<?xml version="1.0" standalone="no"?>
<!DOCTYPE svg PUBLIC "-//W3C//DTD SVG 20010904//EN"
 "http://www.w3.org/TR/2001/REC-SVG-20010904/DTD/svg10.dtd">
<svg version="1.0" xmlns="http://www.w3.org/2000/svg"
 width="900.000000pt" height="900.000000pt" viewBox="0 0 900.000000 900.000000"
 preserveAspectRatio="xMidYMid meet">
<metadata>
Created by potrace 1.16, written by Peter Selinger 2001-2019
</metadata>
<g transform="translate(0.000000,900.000000) scale(0.100000,-0.100000)"
fill="#000000" stroke="none">
<path d="M4155 8700 c-288 -59 -516 -185 -711 -394 l-80 -85 -82 24 c-131 38
-229 48 -396 42 -344 -13 -629 -140 -872 -389 -251 -256 -374 -557 -374 -913
0 -351 131 -668 379 -915 181 -180 367 -286 618 -349 70 -18 114 -24 233 -35
l35 -3 67 -334 c36 -184 94 -473 127 -643 34 -171 63 -312 66 -314 3 -3 31 7
62 21 161 72 390 139 605 177 352 62 821 60 1173 -5 188 -35 429 -112 559
-177 32 -16 60 -27 62 -25 3 3 25 110 50 238 63 328 117 599 166 848 l43 215
55 3 c224 15 454 95 650 226 98 65 273 241 340 341 150 225 222 461 222 731 1
541 -309 1003 -815 1213 -245 102 -575 121 -831 46 l-80 -23 -40 46 c-23 26
-48 54 -56 63 -116 131 -378 289 -562 340 -198 54 -437 66 -613 30z m458 -186
c219 -45 407 -145 562 -299 61 -60 157 -179 180 -222 1 -1 35 11 75 28 492
200 1053 27 1349 -415 215 -320 248 -740 85 -1085 -177 -376 -526 -619 -931
-647 l-93 -7 -54 36 c-72 48 -259 146 -371 195 -191 83 -404 144 -620 178
-167 25 -506 23 -695 -5 -228 -34 -382 -80 -420 -126 -12 -15 -12 -19 5 -32
16 -12 41 -14 125 -9 517 29 768 15 1115 -65 268 -61 755 -259 755 -307 0 -16
-12 -86 -69 -397 -11 -60 -43 -236 -71 -389 -28 -154 -52 -281 -54 -283 -1 -2
-29 6 -62 17 -159 55 -422 109 -659 134 -171 18 -602 18 -770 0 -238 -25 -496
-77 -657 -133 -32 -11 -59 -17 -62 -13 -2 4 -41 196 -86 427 -46 231 -99 501
-119 599 l-36 179 -82 -2 c-212 -6 -450 66 -638 192 -73 49 -202 172 -259 247
-170 220 -253 507 -226 775 37 365 234 679 544 863 296 177 674 204 991 71 38
-16 72 -25 75 -21 4 4 27 36 52 72 56 80 173 197 253 254 172 123 317 176 570
210 51 7 226 -5 298 -20z"/>
<path d="M7215 7850 c106 -183 167 -333 212 -523 25 -103 27 -129 28 -332 0
-174 -4 -237 -18 -302 -94 -439 -315 -779 -662 -1025 -152 -107 -368 -205
-540 -244 -44 -9 -83 -20 -87 -23 -4 -3 -35 -146 -68 -316 -34 -171 -81 -409
-105 -530 -24 -121 -62 -317 -86 -435 -23 -118 -43 -217 -45 -219 -2 -2 -23
14 -46 36 -139 127 -401 251 -663 313 -246 58 -450 80 -734 80 -369 -1 -707
-52 -986 -150 -143 -51 -395 -183 -395 -207 0 -11 31 -177 35 -191 3 -8 33 9
83 46 224 166 540 275 962 334 64 9 205 13 430 12 294 0 352 -3 475 -22 147
-23 325 -65 435 -102 164 -56 369 -169 473 -261 26 -23 49 -40 51 -38 1 2 8
31 14 64 6 33 54 278 107 545 53 267 112 568 131 670 19 102 38 194 43 206 6
15 25 24 67 33 179 40 374 124 549 239 128 83 335 288 422 417 122 181 217
407 260 620 26 129 25 450 -1 590 -24 130 -85 314 -140 424 -48 94 -146 245
-196 301 l-31 35 26 -45z"/>
<path d="M1780 5860 c26 -48 243 -259 334 -324 50 -36 148 -95 217 -130 121
-62 323 -136 335 -123 4 3 0 32 -7 63 l-14 57 -90 21 c-253 61 -508 199 -701
379 -48 45 -81 71 -74 57z"/>
<path d="M1986 3545 c-3 -10 7 -21 32 -34 20 -10 87 -45 147 -76 61 -31 259
-133 440 -226 543 -277 530 -270 533 -302 4 -32 -21 -67 -47 -67 -9 0 -79 27
-156 59 -166 70 -682 288 -880 373 -158 67 -170 70 -170 45 0 -14 51 -44 200
-121 1034 -529 977 -495 941 -552 -25 -37 -60 -30 -256 54 -453 193 -974 412
-981 412 -4 0 -9 -7 -13 -15 -6 -16 27 -35 384 -217 763 -390 760 -389 766
-414 8 -30 -19 -74 -46 -74 -15 0 -648 264 -1166 486 -32 14 -44 10 -44 -13 0
-18 1405 -720 1483 -739 79 -21 132 -13 210 30 112 61 207 82 299 66 92 -17
131 -36 148 -73 16 -35 59 -48 85 -27 8 7 20 8 27 4 7 -5 89 -42 181 -84 93
-41 168 -79 167 -85 -1 -12 -328 -168 -565 -270 -232 -99 -531 -209 -965 -355
-550 -184 -723 -258 -824 -351 -50 -46 -51 -48 -51 -105 1 -108 88 -252 163
-271 39 -10 178 29 285 80 114 54 242 127 562 322 627 382 864 508 1441 769
l191 86 254 -116 c301 -137 590 -281 784 -389 128 -71 236 -136 806 -481 338
-204 533 -291 634 -281 43 4 54 10 86 46 46 51 91 161 93 223 1 61 -20 90
-118 155 -105 70 -276 138 -730 292 -522 177 -809 284 -1051 391 -225 100
-527 246 -525 256 1 5 86 46 188 92 171 76 190 82 221 73 29 -8 36 -7 55 13
11 12 26 30 31 40 15 25 111 55 180 56 59 0 61 -1 116 -53 112 -106 235 -150
414 -150 125 0 220 18 374 69 219 73 404 181 553 323 333 316 402 678 171 892
-74 68 -134 100 -248 135 -82 25 -105 27 -265 28 -149 1 -190 -2 -280 -22
-286 -64 -611 -249 -771 -440 -104 -124 -143 -229 -144 -385 -1 -103 -2 -109
-29 -143 -16 -20 -55 -53 -88 -74 -54 -36 -64 -38 -109 -33 -49 6 -49 6 -64
-31 -12 -27 -27 -42 -58 -55 -23 -11 -141 -67 -262 -126 l-219 -107 -255 126
c-223 110 -256 129 -267 156 -16 37 -37 46 -70 31 -22 -10 -33 -7 -75 15 -107
59 -195 189 -219 324 -14 80 -27 104 -82 157 -50 48 -89 69 -298 158 -85 37
-204 89 -265 115 -60 27 -247 108 -415 180 -168 73 -360 157 -427 186 -68 30
-127 54 -132 54 -5 0 -11 -7 -15 -15z m4692 -160 c96 -19 224 -81 280 -135 24
-23 42 -44 40 -46 -2 -2 -38 8 -79 23 -64 22 -95 26 -229 31 -118 3 -176 0
-243 -12 -298 -56 -638 -260 -768 -460 -107 -164 -115 -321 -24 -514 50 -106
42 -109 -51 -15 -59 60 -134 199 -153 283 -29 127 -1 274 73 385 131 198 451
392 751 455 113 24 297 26 403 5z"/>
<path d="M7343 3380 c102 -150 132 -243 132 -405 0 -132 -13 -187 -69 -310
-104 -226 -342 -468 -628 -638 -261 -156 -554 -258 -786 -274 -46 -3 -79 -9
-75 -13 4 -4 39 -18 78 -30 65 -22 75 -22 153 -11 520 75 1104 462 1312 871
67 132 100 301 81 424 -21 144 -93 293 -195 401 l-47 50 44 -65z"/>
<path d="M1435 2670 c-7 -12 0 -16 250 -150 116 -62 242 -130 282 -151 212
-115 576 -304 779 -405 199 -99 242 -117 305 -126 118 -16 242 -4 375 38 64
19 114 38 111 40 -2 2 -82 -1 -178 -7 -96 -6 -230 -9 -300 -7 l-125 4 -160 77
c-138 68 -517 264 -729 378 -312 167 -598 319 -601 319 -1 0 -5 -4 -9 -10z"/>
<path d="M4345 1456 c-94 -22 -247 -82 -405 -161 -178 -88 -216 -111 -556
-341 -416 -280 -661 -421 -891 -513 -158 -63 -260 -85 -393 -85 -124 -1 -187
14 -265 62 l-40 24 35 -36 c74 -79 240 -133 366 -120 181 18 319 62 539 170
204 100 351 189 756 459 341 229 446 290 648 379 351 156 529 151 911 -23 240
-110 365 -182 1045 -596 330 -201 517 -300 645 -340 406 -128 760 112 718 485
-9 82 -69 205 -134 275 -39 42 -42 44 -24 15 46 -76 79 -155 91 -222 39 -216
-100 -427 -326 -498 -116 -36 -304 -26 -430 22 -120 46 -367 185 -830 468
-549 335 -844 488 -1085 562 -85 26 -289 34 -375 14z"/>
</g>
</svg>
